<?xml version="1.0" encoding="UTF-8"?>
<svg width="132px" height="46px" viewBox="0 0 132 46" version="1.1" xmlns="http://www.w3.org/2000/svg" xmlns:xlink="http://www.w3.org/1999/xlink">
    <!-- Generator: Sketch 52.1 (67048) - http://www.bohemiancoding.com/sketch -->
    <title>Shape</title>
    <desc>Created with Sketch.</desc>
    <g id="_Flows" stroke="none" stroke-width="1" fill="none" fill-rule="evenodd">
        <g transform="translate(-274.000000, -499.000000)" fill="#000" fill-rule="nonzero">
            <g id="color_-_land_1_" transform="translate(274.000000, 488.000000)">
                <path d="M97.2,41.6 C92.9,46.3 85.7,46.2 81.5,41.6 C79.4,43.9 76.8,45.1 73.7,45.1 C70.6,45.1 68,43.9 65.8,41.6 C63.7,43.9 61.1,45.1 58,45.1 C54.9,45.1 52.3,43.9 50.1,41.6 C48,43.9 45.4,45.1 42.3,45.1 C39.2,45.1 36.6,43.9 34.4,41.6 C32.3,43.8 29.7,45.1 26.6,45.1 C23.5,45.1 20.9,43.9 18.7,41.6 C18.6,41.7 18.4,41.9 18.3,42 C15.2,45.1 12.1,48.2 8.9,51.4 C8.6,51.7 8.3,51.8 7.8,51.8 C7.2,51.7 6.6,51.5 6.1,51.3 C5.3,50.9 4.6,50.5 3.9,49.9 C3.5,49.6 3.5,49.3 3.9,49 C7.3,45.6 10.8,42.1 14.2,38.7 C14.7,38.2 15.2,37.6 15.6,37 C17.1,33.8 15.1,30.1 11.6,29.6 C8.4,29.2 6.1,31.5 5.8,34.1 C5.6,35.7 6,37.1 7.1,38.3 C7.5,38.7 7.9,39.1 8.3,39.5 C9,40.2 9.7,40.9 10.3,41.5 C10.6,41.8 10.6,42.1 10.3,42.4 C9.4,43.1 8.4,43.8 7.3,44.1 C6.9,44.2 6.5,44.3 6.2,44.3 C5.9,44.3 5.6,44.3 5.4,44 C4.5,43.1 3.5,42.2 2.7,41.2 C1,39.1 0.3,36.6 0.5,33.9 C0.8,29.4 4.1,25.6 8.4,24.5 C14.3,23 20.2,26.9 21.3,32.9 C21.4,33.4 21.4,34 21.5,34.5 C21.6,35.5 21.8,36.4 22.3,37.3 C23.4,39.1 25.5,40.1 27.6,39.8 C29.7,39.4 31.4,37.8 31.9,35.7 C32,35.4 32,35.2 32,34.9 C32,33.5 32,32.2 32,30.8 C32,30.4 32.2,30.1 32.6,30.2 C33.6,30.3 34.6,30.5 35.6,31 C36,31.2 36.4,31.4 36.8,31.7 C37.2,31.9 37.4,32.3 37.4,32.8 C37.4,33.5 37.4,34.2 37.4,34.9 C37.4,36.3 37.9,37.4 38.8,38.4 C40.2,39.9 42,40.4 44,39.8 C46,39.2 47.2,37.9 47.6,35.9 C48.3,32.6 45.9,29.9 43.1,29.7 C42.8,29.7 42.6,29.7 42.3,29.7 C39.1,29.7 35.9,29.7 32.7,29.7 C32,29.7 31.9,29.6 32,28.9 C32.1,27.9 32.3,26.9 32.8,26 C33,25.6 33.2,25.2 33.5,24.8 C33.7,24.5 34,24.3 34.4,24.3 C34.9,24.3 35.4,24.3 35.9,24.3 C38.1,24.3 40.3,24.3 42.5,24.3 C44,24.3 45.5,24.6 46.9,25.3 C50.2,26.9 52.3,29.6 52.9,33.3 C53,33.8 53,34.4 53,34.9 C53,37.5 55,39.7 57.6,40 C60.4,40.3 62.9,38.4 63.3,35.6 C63.3,35.4 63.3,35.3 63.3,35.1 C63.3,31.8 63.3,28.5 63.3,25.2 C63.3,24.5 63.4,24.4 64.1,24.5 C65.1,24.6 66,24.8 66.9,25.2 C67.3,25.4 67.7,25.6 68,25.9 C68.4,26.1 68.6,26.5 68.6,27 C68.6,27.6 68.6,28.2 68.6,28.8 C68.6,30.8 68.6,32.9 68.6,34.9 C68.6,37.5 70.4,39.6 73,40 C76.3,40.5 79,37.9 79,34.9 C79,27.5 79,20 79,12.6 C79,12.5 79,12.4 79,12.2 C79,11.8 79.2,11.6 79.6,11.7 C81.1,11.9 82.6,12.2 83.8,13.1 C84.2,13.4 84.3,13.7 84.3,14.2 C84.3,17.2 84.3,20.3 84.3,23.3 C84.3,27.1 84.3,31 84.3,34.8 C84.3,37.1 85.8,39.1 88,39.8 C91,40.7 94.2,38.8 94.7,35.7 C94.7,35.5 94.7,35.4 94.7,35.2 C94.7,31.9 94.7,28.6 94.7,25.3 C94.7,25.2 94.7,25.1 94.7,25 C94.7,24.6 94.9,24.4 95.3,24.4 C96.5,24.5 97.7,24.8 98.8,25.4 C99.1,25.6 99.4,25.8 99.7,26 C100,26.2 100.1,26.4 100.1,26.7 C100.1,26.8 100.1,27 100.1,27.1 C100.1,29.7 100.1,32.2 100.1,34.8 C100.1,37.1 101.6,39.1 103.8,39.8 C104.3,40 104.8,40 105.3,40 C110.5,40 115.6,40 120.8,40 C121.7,40 122.5,39.9 123.3,39.5 C125.3,38.5 126.3,37 126.4,34.8 C126.4,34.1 126.4,33.4 126.3,32.8 C126,30.7 124.2,28.9 122.1,28.6 C119.3,28.2 116.8,29.9 116.2,32.6 C116.1,33 116.1,33.3 116.1,33.7 C116.1,34.8 116.1,35.9 116.1,37 C116.1,37.5 115.9,37.8 115.6,38.1 C114.8,38.7 113.9,39 112.9,39.3 C112.4,39.4 111.9,39.5 111.4,39.5 C111,39.5 110.8,39.4 110.8,39 C110.8,37.1 110.8,35.2 110.8,33.2 C110.9,30.7 111.8,28.6 113.4,26.7 C115.2,24.6 117.5,23.5 120.3,23.2 C126.1,22.7 130.7,26.7 131.6,31.7 C131.7,32.4 131.8,33.1 131.8,33.8 C131.8,34.7 131.8,35.5 131.7,36.4 C131.3,38.7 130.3,40.7 128.6,42.4 C126.8,44.1 124.7,45.1 122.2,45.3 C121.7,45.4 121.1,45.3 120.6,45.3 C115.6,45.3 110.6,45.3 105.6,45.3 C102.5,45.3 99.9,44.2 97.8,42 C97.4,41.7 97.3,41.7 97.2,41.6 C97.3,41.6 97.3,41.6 97.2,41.6 Z M58.2,50.1 C57.8,49.6 57.2,49.2 56.6,49 C56,48.8 55.3,48.7 54.6,48.9 C52.8,49.3 51.5,50.8 51.6,52.7 C51.6,54.5 53,56.1 54.8,56.3 C56.5,56.5 58.5,55.6 59.1,53.2 C59.3,53.9 59.5,54.5 60,55 C60.4,55.5 61,55.9 61.6,56.1 C62.2,56.3 62.9,56.4 63.6,56.2 C65.4,55.8 66.7,54.3 66.6,52.4 C66.6,50.6 65.2,49 63.4,48.8 C61.7,48.6 59.7,49.5 59.1,51.9 C58.9,51.2 58.6,50.6 58.2,50.1 Z M95.3,56.2 C97.2,55.9 98.5,54.3 98.5,52.5 C98.5,50.7 97.1,49.1 95.3,48.8 C93.6,48.5 91.6,49.4 91,51.9 C90.4,49.3 88.2,48.6 86.7,48.9 C84.8,49.2 83.5,50.8 83.5,52.6 C83.5,54.4 84.9,56 86.7,56.3 C88.4,56.6 90.4,55.7 91,53.2 C91.6,55.7 93.8,56.5 95.3,56.2 Z M120.3,18.9 C122.4,18.9 124.1,17.2 124,15.1 C124,13 122.3,11.4 120.3,11.4 C118.2,11.4 116.5,13.1 116.6,15.2 C116.6,17.2 118.3,18.9 120.3,18.9 Z" id="Shape"></path>
            </g>
        </g>
    </g>
</svg>
